# xmcd
#
# Track frame offsets:
#	150
#	17335
#	39515
#	60162
#	78803
#	89999
#	114019
#	133631
#	150386
#	167935
#	183701
#	202709
#
# Disc length: 3133 seconds
#
# Revision: 1
# Processed by: cddbd v1.5.2PL0 Copyright (c) Steve Scherf et al.
# Submitted via: audiograbber 1.83.01
#
DISCID=870c3b0c
DTITLE=Válogatás - Old Man's Songbook Vol. 3 I
DYEAR=2005
DGENRE=Rock
TTITLE0=Ganxsta Zolee and Kartel - Route 66
TTITLE1=Deák Bill Gyula - Kocsma Blues
TTITLE2=Hobo Blues Band - Blues Jim Morrisonnak
TTITLE3=Török Ádám and Mini - Figyel a Nagy Testvér
TTITLE4=Magyar Atom - Fire
TTITLE5=Muddy Shoes - One Place Tonight
TTITLE6=Palermo Boogie Gang - Missed You Baby
TTITLE7=Blues B.R.Others - Something's Got A Hold On Me
TTITLE8=Takáts Tamás Dirty Blues Band - Lesz lakásom blues
TTITLE9=Ferenczi György and Rackafunk - Mi zörög
TTITLE10=Blues Floor - Múlik az idõ
TTITLE11=Road Kill Café - Medley
EXTD=
EXTT0=
EXTT1=
EXTT2=
EXTT3=
EXTT4=
EXTT5=
EXTT6=
EXTT7=
EXTT8=
EXTT9=
EXTT10=
EXTT11=
PLAYORDER=
